<?xml version="1.0" standalone="no"?>
<!DOCTYPE svg PUBLIC "-//W3C//DTD SVG 20010904//EN"
 "http://www.w3.org/TR/2001/REC-SVG-20010904/DTD/svg10.dtd">
<svg version="1.0" xmlns="http://www.w3.org/2000/svg"
 width="1280.000000pt" height="1188.000000pt" viewBox="0 0 1280.000000 1188.000000"
 preserveAspectRatio="xMidYMid meet">
<g transform="translate(0.000000,1188.000000) scale(0.100000,-0.100000)"
fill="#000000" stroke="none">
<path d="M8599 11876 c-2 -2 -59 -11 -126 -20 -143 -19 -222 -36 -352 -78 -52
-16 -608 -246 -1235 -510 -931 -391 -1193 -497 -1421 -575 -154 -52 -1169
-392 -2255 -755 -1086 -363 -2022 -681 -2079 -706 -218 -95 -383 -211 -571
-401 -196 -198 -322 -390 -421 -641 -81 -204 -134 -481 -132 -680 2 -233 22
-610 37 -695 39 -224 45 -241 401 -1085 303 -719 189 -396 1080 -3060 221
-663 423 -1251 448 -1307 180 -410 528 -763 932 -948 39 -17 113 -60 165 -94
161 -106 369 -199 569 -252 102 -27 388 -69 470 -69 145 0 451 56 611 112 47
17 1032 429 2190 915 2375 999 1974 844 3635 1399 922 308 994 336 1196 473
198 133 370 303 501 496 34 50 87 122 119 160 187 230 331 530 388 812 50 245
58 416 28 620 -18 131 -68 336 -91 381 -18 35 -55 53 -126 61 l-55 6 -7 63
c-8 76 -33 177 -104 422 -134 467 -171 563 -715 1857 l-521 1238 -253 755
c-139 415 -269 791 -288 835 -118 265 -296 503 -506 677 -115 95 -325 249
-426 312 -156 97 -397 194 -575 231 -187 39 -492 70 -511 51z m596 -466 c221
-47 472 -155 583 -252 123 -106 263 -291 344 -452 23 -45 203 -466 401 -936
l359 -855 308 -920 c688 -2054 627 -1882 842 -2405 99 -241 207 -464 254 -526
l36 -46 -30 -32 c-16 -17 -37 -46 -46 -63 -15 -31 -15 -39 6 -135 20 -89 23
-132 23 -323 0 -190 -3 -233 -22 -318 -30 -131 -74 -261 -130 -376 -38 -81
-58 -108 -123 -171 -104 -101 -241 -197 -375 -264 -60 -30 -690 -299 -1400
-597 l-1290 -542 -1115 -372 c-3099 -1036 -3731 -1245 -3802 -1260 -269 -53
-543 -38 -803 46 -77 25 -100 38 -163 92 -142 123 -280 302 -366 473 -37 75
-447 1045 -1516 3589 -166 394 -185 448 -495 1370 -192 575 -329 997 -340
1053 -15 80 -16 103 -6 170 80 510 390 948 831 1176 58 30 1124 483 2370 1006
l2265 952 1025 343 c564 189 1147 384 1295 434 448 152 549 173 815 166 115
-3 195 -10 265 -25z m-7392 -2271 c-5 -5 -169 -78 -364 -160 -194 -82 -391
-170 -437 -195 -81 -44 -108 -50 -83 -20 22 26 175 123 270 171 52 26 205 85
340 130 240 81 297 97 274 74z m10425 -3310 c75 -136 170 -294 207 -342 25
-31 45 -59 45 -62 0 -3 -13 -23 -29 -46 -43 -59 -46 -85 -16 -185 14 -49 28
-113 32 -143 6 -54 6 -54 -18 -47 -13 4 -42 10 -65 13 l-41 5 -6 82 c-6 79
-65 399 -113 606 -13 58 -26 115 -29 128 -8 32 13 27 33 -9z m-7204 -5269
c-15 -15 -352 -155 -440 -183 -152 -48 -318 -71 -264 -37 23 15 673 230 695
230 12 0 16 -3 9 -10z"/>
<path d="M6305 9271 c-103 -47 -185 -207 -185 -362 0 -65 2 -63 -95 -74 -120
-12 -313 -47 -450 -81 -876 -217 -1625 -767 -2128 -1562 -91 -144 -254 -475
-316 -643 -115 -313 -193 -669 -217 -986 l-7 -93 3497 0 3496 0 0 20 c0 57
-34 329 -56 448 -106 582 -343 1107 -716 1587 -114 147 -414 451 -563 569
-444 352 -944 586 -1490 695 -82 17 -202 35 -265 42 -171 17 -164 13 -171 95
-24 260 -176 417 -334 345z m-710 -715 c-38 -25 -107 -67 -151 -95 -418 -261
-776 -666 -1019 -1150 -195 -389 -338 -882 -371 -1271 -3 -47 -11 -93 -16
-102 -8 -16 -29 -18 -226 -18 -119 0 -223 4 -231 9 -30 19 47 387 134 640 277
807 931 1526 1783 1963 151 77 202 90 97 24z"/>
<path d="M10165 5429 c-181 -10 -807 -44 -1390 -74 -583 -30 -1357 -71 -1720
-90 -363 -19 -1180 -62 -1815 -95 -2683 -140 -3034 -160 -3042 -168 -5 -5 -7
-62 -6 -128 l3 -119 4185 0 4185 0 0 345 0 345 -35 1 c-19 1 -183 -7 -365 -17z"/>
<path d="M2302 3888 l3 -472 30 -7 c68 -18 333 -41 525 -46 523 -15 869 85
980 281 17 29 38 60 48 69 126 115 2230 205 5747 248 501 6 916 12 923 14 9 3
12 51 12 195 l0 190 -40 0 c-21 0 -263 -13 -537 -30 -517 -31 -825 -49 -2523
-150 -1897 -112 -2364 -140 -2945 -175 -319 -19 -596 -35 -615 -35 -32 0 -37
4 -64 55 -46 88 -149 177 -281 241 -197 96 -184 94 -762 94 l-503 0 2 -472z
m896 350 c16 -16 15 -73 -2 -87 -9 -8 -117 -11 -377 -9 l-364 3 -9 27 c-7 18
-6 35 2 53 l12 25 363 0 c269 0 366 -3 375 -12z m0 -200 c16 -16 15 -73 -2
-87 -9 -8 -117 -11 -377 -9 l-364 3 -9 27 c-7 18 -6 35 2 53 l12 25 363 0
c269 0 366 -3 375 -12z m0 -200 c16 -16 15 -73 -2 -87 -9 -8 -117 -11 -377 -9
l-364 3 -9 27 c-7 18 -6 35 2 53 l12 25 363 0 c269 0 366 -3 375 -12z m0 -200
c16 -16 15 -73 -2 -87 -9 -8 -117 -11 -377 -9 l-364 3 -9 27 c-7 18 -6 35 2
53 l12 25 363 0 c269 0 366 -3 375 -12z"/>
</g>
</svg>
